# xmcd
#
# Track frame offsets: 
#        150
#        16868
#        33990
#        52257
#        75116
#        92258
#        113296
#        132818
#        152510
#        170967
#        189287
#        208201
#        226535
#        234158
#
# Disc length: 3228 seconds
#
# Revision: 1
# Processed by: cddbd v1.5.2PL0 Copyright (c) Steve Scherf et al.
# Submitted via: ExactAudioCopy v0.99pb4
#
DISCID=940c9a0e
DTITLE=Brian O'neal - Daisy
DYEAR=2007
DGENRE=Jazz
TTITLE0=Mesmerized
TTITLE1=Inner G
TTITLE2=On The Path
TTITLE3=No words necessary
TTITLE4=Let me do it again
TTITLE5=Daisy
TTITLE6=Dancer
TTITLE7=Dalilah Days
TTITLE8=Cool Beans
TTITLE9=Its personal
TTITLE10=Autobahn
TTITLE11=For my mother
TTITLE12=Because
TTITLE13=The small of bean
EXTD=YEAR: 2007
EXTT0=
EXTT1=
EXTT2=
EXTT3=
EXTT4=
EXTT5=
EXTT6=
EXTT7=
EXTT8=
EXTT9=
EXTT10=
EXTT11=
EXTT12=
EXTT13=
PLAYORDER=
